<svg width="13" height="13" viewBox="0 0 13 13" fill="none" xmlns="http://www.w3.org/2000/svg">
<path d="M4.05556 3.44444V1V3.44444ZM8.94444 3.44444V1V3.44444ZM3.44444 5.88889H9.55556H3.44444ZM2.22222 12H10.7778C11.1019 12 11.4128 11.8712 11.642 11.642C11.8712 11.4128 12 11.1019 12 10.7778V3.44444C12 3.12029 11.8712 2.80941 11.642 2.5802C11.4128 2.35099 11.1019 2.22222 10.7778 2.22222H2.22222C1.89807 2.22222 1.58719 2.35099 1.35798 2.5802C1.12877 2.80941 1 3.12029 1 3.44444V10.7778C1 11.1019 1.12877 11.4128 1.35798 11.642C1.58719 11.8712 1.89807 12 2.22222 12Z" stroke="white" stroke-linecap="round" stroke-linejoin="round"/>
</svg>
