<svg width="9" height="9" viewBox="0 0 9 9" fill="none" xmlns="http://www.w3.org/2000/svg">
<path fill-rule="evenodd" clip-rule="evenodd" d="M2.40015 0.818373C2.76199 0.789483 3.10549 0.647162 3.38173 0.411678C3.69373 0.145944 4.09017 0 4.5 0C4.90983 0 5.30627 0.145944 5.61827 0.411678C5.89451 0.647162 6.23801 0.789483 6.59985 0.818373C7.00847 0.85103 7.39211 1.02817 7.68197 1.31803C7.97183 1.60789 8.14897 1.99153 8.18163 2.40015C8.21032 2.76184 8.35263 3.10554 8.58832 3.38173C8.85406 3.69373 9 4.09017 9 4.5C9 4.90983 8.85406 5.30627 8.58832 5.61827C8.35284 5.89451 8.21052 6.23801 8.18163 6.59985C8.14897 7.00847 7.97183 7.39211 7.68197 7.68197C7.39211 7.97183 7.00847 8.14897 6.59985 8.18163C6.23801 8.21052 5.89451 8.35284 5.61827 8.58832C5.30627 8.85406 4.90983 9 4.5 9C4.09017 9 3.69373 8.85406 3.38173 8.58832C3.10549 8.35284 2.76199 8.21052 2.40015 8.18163C1.99153 8.14897 1.60789 7.97183 1.31803 7.68197C1.02817 7.39211 0.85103 7.00847 0.818373 6.59985C0.789483 6.23801 0.647162 5.89451 0.411678 5.61827C0.145944 5.30627 0 4.90983 0 4.5C0 4.09017 0.145944 3.69373 0.411678 3.38173C0.647162 3.10549 0.789483 2.76199 0.818373 2.40015C0.85103 1.99153 1.02817 1.60789 1.31803 1.31803C1.60789 1.02817 1.99153 0.85103 2.40015 0.818373ZM6.58522 3.77267C6.68769 3.66658 6.74439 3.52449 6.74311 3.37701C6.74182 3.22952 6.68267 3.08843 6.57837 2.98414C6.47408 2.87984 6.33299 2.82069 6.18551 2.8194C6.03802 2.81812 5.89593 2.87482 5.78984 2.97729L3.93749 4.82963L3.21017 4.10231C3.10407 3.99984 2.96198 3.94314 2.81449 3.94442C2.66701 3.94571 2.52592 4.00486 2.42163 4.10916C2.31733 4.21345 2.25818 4.35454 2.25689 4.50202C2.25561 4.64951 2.31231 4.7916 2.41478 4.89769L3.5398 6.02271C3.64528 6.12817 3.78833 6.18741 3.93749 6.18741C4.08665 6.18741 4.2297 6.12817 4.33518 6.02271L6.58522 3.77267Z" fill="#00B9EC"/>
</svg>
