<svg width="12" height="13" viewBox="0 0 12 13" fill="none" xmlns="http://www.w3.org/2000/svg">
<path d="M3.5 3.44444V8.33333C3.5 8.65749 3.6317 8.96836 3.86612 9.19757C4.10054 9.42679 4.41848 9.55556 4.75 9.55556H8.5M3.5 3.44444V2.22222C3.5 1.89807 3.6317 1.58719 3.86612 1.35798C4.10054 1.12877 4.41848 1 4.75 1H7.61625C7.782 1.00003 7.94094 1.06444 8.05813 1.17906L10.8169 3.8765C10.9341 3.99108 11 4.14649 11 4.30856V8.33333C11 8.65749 10.8683 8.96836 10.6339 9.19757C10.3995 9.42679 10.0815 9.55556 9.75 9.55556H8.5M3.5 3.44444H2.25C1.91848 3.44444 1.60054 3.57321 1.36612 3.80242C1.1317 4.03164 1 4.34251 1 4.66667V10.7778C1 11.1019 1.1317 11.4128 1.36612 11.642C1.60054 11.8712 1.91848 12 2.25 12H7.25C7.58152 12 7.89946 11.8712 8.13388 11.642C8.3683 11.4128 8.5 11.1019 8.5 10.7778V9.55556" stroke="black" stroke-opacity="0.5" stroke-width="1.3" stroke-linecap="round" stroke-linejoin="round"/>
</svg>
