<svg width="14" height="14" viewBox="0 0 14 14" fill="none" xmlns="http://www.w3.org/2000/svg">
<path fill-rule="evenodd" clip-rule="evenodd" d="M1.82263 6.125H3.52537C3.60325 4.77225 3.8605 3.52625 4.25775 2.52175C3.61813 2.91368 3.06986 3.43804 2.64983 4.05957C2.2298 4.68109 1.94774 5.38536 1.82263 6.125ZM7 0C5.14348 0 3.36301 0.737498 2.05025 2.05025C0.737498 3.36301 0 5.14348 0 7C0 8.85652 0.737498 10.637 2.05025 11.9497C3.36301 13.2625 5.14348 14 7 14C8.85652 14 10.637 13.2625 11.9497 11.9497C13.2625 10.637 14 8.85652 14 7C14 5.14348 13.2625 3.36301 11.9497 2.05025C10.637 0.737498 8.85652 0 7 0ZM7 1.75C6.9335 1.75 6.797 1.778 6.59312 1.97925C6.38487 2.184 6.15825 2.52437 5.94825 3.0135C5.60788 3.80712 5.35937 4.88775 5.278 6.125H8.722C8.64062 4.88775 8.39213 3.80712 8.05175 3.0135C7.84175 2.5235 7.61425 2.184 7.40688 1.97925C7.203 1.778 7.0665 1.75 7 1.75ZM10.4746 6.125C10.3967 4.77225 10.1395 3.52625 9.74225 2.52175C10.3819 2.91368 10.9301 3.43804 11.3502 4.05957C11.7702 4.68109 12.0523 5.38536 12.1774 6.125H10.4746ZM8.722 7.875H5.278C5.35937 9.11225 5.60788 10.1929 5.94825 10.9865C6.15825 11.4765 6.38575 11.816 6.59312 12.0208C6.797 12.222 6.9335 12.25 7 12.25C7.0665 12.25 7.203 12.222 7.40688 12.0208C7.61513 11.816 7.84262 11.4756 8.05175 10.9865C8.39213 10.1929 8.64062 9.11225 8.722 7.875ZM9.74225 11.4783C10.1395 10.4746 10.3967 9.22775 10.4746 7.875H12.1774C12.0523 8.61464 11.7702 9.31891 11.3502 9.94043C10.9301 10.562 10.3819 11.0863 9.74225 11.4783ZM4.25775 11.4783C3.8605 10.4738 3.60325 9.22775 3.52625 7.875H1.82263C1.94774 8.61464 2.2298 9.31891 2.64983 9.94043C3.06986 10.562 3.61813 11.0863 4.25775 11.4783Z" fill="#1DC2EC"/>
</svg>
