<svg width="3" height="14" viewBox="0 0 3 14" fill="none" xmlns="http://www.w3.org/2000/svg">
<path fill-rule="evenodd" clip-rule="evenodd" d="M0.43934 0.455612C0.720644 0.163889 1.10217 0 1.5 0C1.89783 0 2.27936 0.163889 2.56066 0.455612C2.84196 0.747335 3 1.143 3 1.55556C3 1.96812 2.84196 2.36378 2.56066 2.6555C2.27936 2.94722 1.89783 3.11111 1.5 3.11111C1.10217 3.11111 0.720644 2.94722 0.43934 2.6555C0.158036 2.36378 0 1.96812 0 1.55556C0 1.143 0.158036 0.747335 0.43934 0.455612ZM0.43934 5.90006C0.720644 5.60833 1.10217 5.44444 1.5 5.44444C1.89783 5.44444 2.27936 5.60833 2.56066 5.90006C2.84196 6.19178 3 6.58744 3 7C3 7.41256 2.84196 7.80822 2.56066 8.09994C2.27936 8.39167 1.89783 8.55556 1.5 8.55556C1.10217 8.55556 0.720644 8.39167 0.43934 8.09994C0.158036 7.80822 0 7.41256 0 7C0 6.58744 0.158036 6.19178 0.43934 5.90006ZM0.43934 11.3445C0.720645 11.0528 1.10218 10.8889 1.5 10.8889C1.89782 10.8889 2.27935 11.0528 2.56066 11.3445C2.84196 11.6362 3 12.0319 3 12.4444C3 12.857 2.84196 13.2527 2.56066 13.5444C2.27935 13.8361 1.89782 14 1.5 14C1.10218 14 0.720645 13.8361 0.43934 13.5444C0.158035 13.2527 0 12.857 0 12.4444C0 12.0319 0.158035 11.6362 0.43934 11.3445Z" fill="#24B5E0"/>
</svg>
