<svg width="9" height="9" viewBox="0 0 9 9" fill="none" xmlns="http://www.w3.org/2000/svg">
<path fill-rule="evenodd" clip-rule="evenodd" d="M9 4.5C9 5.69347 8.52589 6.83807 7.68198 7.68198C6.83807 8.52589 5.69347 9 4.5 9C3.30653 9 2.16193 8.52589 1.31802 7.68198C0.474106 6.83807 0 5.69347 0 4.5C0 3.30653 0.474106 2.16193 1.31802 1.31802C2.16193 0.474106 3.30653 0 4.5 0C5.69347 0 6.83807 0.474106 7.68198 1.31802C8.52589 2.16193 9 3.30653 9 4.5ZM5.0625 2.25C5.0625 2.39918 5.00324 2.54226 4.89775 2.64775C4.79226 2.75324 4.64918 2.8125 4.5 2.8125C4.35082 2.8125 4.20774 2.75324 4.10225 2.64775C3.99676 2.54226 3.9375 2.39918 3.9375 2.25C3.9375 2.10082 3.99676 1.95774 4.10225 1.85225C4.20774 1.74676 4.35082 1.6875 4.5 1.6875C4.64918 1.6875 4.79226 1.74676 4.89775 1.85225C5.00324 1.95774 5.0625 2.10082 5.0625 2.25ZM3.9375 3.9375C3.78832 3.9375 3.64524 3.99676 3.53975 4.10225C3.43426 4.20774 3.375 4.35082 3.375 4.5C3.375 4.64918 3.43426 4.79226 3.53975 4.89775C3.64524 5.00324 3.78832 5.0625 3.9375 5.0625V6.75C3.9375 6.89918 3.99676 7.04226 4.10225 7.14775C4.20774 7.25324 4.35082 7.3125 4.5 7.3125H5.0625C5.21168 7.3125 5.35476 7.25324 5.46025 7.14775C5.56574 7.04226 5.625 6.89918 5.625 6.75C5.625 6.60082 5.56574 6.45774 5.46025 6.35225C5.35476 6.24676 5.21168 6.1875 5.0625 6.1875V4.5C5.0625 4.35082 5.00324 4.20774 4.89775 4.10225C4.79226 3.99676 4.64918 3.9375 4.5 3.9375H3.9375Z" fill="#58667E" fill-opacity="0.5"/>
</svg>
