<svg width="13" height="13" viewBox="0 0 13 13" fill="none" xmlns="http://www.w3.org/2000/svg">
<path fill-rule="evenodd" clip-rule="evenodd" d="M13 6.5C13 8.22391 12.3152 9.87721 11.0962 11.0962C9.87721 12.3152 8.22391 13 6.5 13C4.77609 13 3.12279 12.3152 1.90381 11.0962C0.68482 9.87721 0 8.22391 0 6.5C0 4.77609 0.68482 3.12279 1.90381 1.90381C3.12279 0.68482 4.77609 0 6.5 0C8.22391 0 9.87721 0.68482 11.0962 1.90381C12.3152 3.12279 13 4.77609 13 6.5ZM7.3125 3.25C7.3125 3.46549 7.2269 3.67215 7.07452 3.82452C6.92215 3.9769 6.71549 4.0625 6.5 4.0625C6.28451 4.0625 6.07785 3.9769 5.92548 3.82452C5.7731 3.67215 5.6875 3.46549 5.6875 3.25C5.6875 3.03451 5.7731 2.82785 5.92548 2.67548C6.07785 2.5231 6.28451 2.4375 6.5 2.4375C6.71549 2.4375 6.92215 2.5231 7.07452 2.67548C7.2269 2.82785 7.3125 3.03451 7.3125 3.25ZM5.6875 5.6875C5.47201 5.6875 5.26535 5.7731 5.11298 5.92548C4.9606 6.07785 4.875 6.28451 4.875 6.5C4.875 6.71549 4.9606 6.92215 5.11298 7.07452C5.26535 7.2269 5.47201 7.3125 5.6875 7.3125V9.75C5.6875 9.96549 5.7731 10.1722 5.92548 10.3245C6.07785 10.4769 6.28451 10.5625 6.5 10.5625H7.3125C7.52799 10.5625 7.73465 10.4769 7.88702 10.3245C8.0394 10.1722 8.125 9.96549 8.125 9.75C8.125 9.53451 8.0394 9.32785 7.88702 9.17548C7.73465 9.0231 7.52799 8.9375 7.3125 8.9375V6.5C7.3125 6.28451 7.2269 6.07785 7.07452 5.92548C6.92215 5.7731 6.71549 5.6875 6.5 5.6875H5.6875Z" fill="#A8B0C1"/>
</svg>
