<svg width="16" height="16" viewBox="0 0 16 16" fill="none" xmlns="http://www.w3.org/2000/svg">
<g opacity="0.7">
<path d="M11.846 0.447388H5.04854C3.94683 0.447388 2.89024 0.88504 2.11121 1.66407C1.33218 2.44309 0.894531 3.49968 0.894531 4.60139V11.3989C0.894531 12.5006 1.33218 13.5572 2.11121 14.3362C2.89024 15.1152 3.94683 15.5529 5.04854 15.5529H11.846C12.9477 15.5529 14.0043 15.1152 14.7833 14.3362C15.5623 13.5572 16 12.5006 16 11.3989V4.60139C16 3.49968 15.5623 2.44309 14.7833 1.66407C14.0043 0.88504 12.9477 0.447388 11.846 0.447388ZM14.6783 10.8022C14.6783 11.7116 14.317 12.5838 13.674 13.2268C13.0309 13.8699 12.1587 14.2311 11.2493 14.2311H5.6452C4.73579 14.2311 3.86362 13.8699 3.22057 13.2268C2.57752 12.5838 2.21626 11.7116 2.21626 10.8022V5.19806C2.21626 4.28865 2.57752 3.41648 3.22057 2.77343C3.86362 2.13038 4.73579 1.76912 5.6452 1.76912H11.2493C12.1587 1.76912 13.0309 2.13038 13.674 2.77343C14.317 3.41648 14.6783 4.28865 14.6783 5.19806V10.8022Z" fill="white"/>
<path d="M11.2017 5.27363L11.1658 5.23775L11.1356 5.20754C10.4217 4.49609 9.45475 4.09682 8.44685 4.09729C7.93788 4.10075 7.43457 4.20446 6.96569 4.40249C6.4968 4.60053 6.07153 4.88901 5.71418 5.25145C5.35682 5.6139 5.07438 6.0432 4.88299 6.51483C4.69159 6.98647 4.595 7.49119 4.59874 8.00017C4.59797 9.0331 5.00513 10.0245 5.73165 10.7588C6.08751 11.119 6.51156 11.4047 6.97904 11.5992C7.44652 11.7937 7.94807 11.8932 8.45441 11.8917C9.2139 11.8758 9.95235 11.6392 10.5797 11.2108C11.207 10.7824 11.6962 10.1807 11.9874 9.47907C12.2787 8.77746 12.3595 8.00625 12.22 7.25951C12.0804 6.51276 11.7266 5.82275 11.2017 5.27363ZM8.44685 10.5605C7.93899 10.5677 7.44049 10.4236 7.01474 10.1466C6.589 9.86961 6.25525 9.47227 6.05595 9.00509C5.85665 8.53792 5.8008 8.02202 5.8955 7.52302C5.99021 7.02401 6.23119 6.56445 6.58779 6.20278C6.9444 5.8411 7.40051 5.59366 7.89813 5.49193C8.39575 5.39019 8.91238 5.43876 9.38232 5.63145C9.85227 5.82414 10.2543 6.15225 10.5372 6.57404C10.8202 6.99583 10.9713 7.49225 10.9714 8.00017C10.9738 8.33408 10.9105 8.66521 10.785 8.97464C10.6594 9.28406 10.4741 9.56571 10.2397 9.80349C10.0052 10.0413 9.72622 10.2305 9.41859 10.3604C9.11097 10.4903 8.78077 10.5583 8.44685 10.5605Z" fill="white"/>
<path d="M13.4383 3.91789C13.4393 4.03905 13.4164 4.15922 13.3709 4.27152C13.3254 4.38381 13.2582 4.48603 13.1731 4.57232C13.088 4.65861 12.9868 4.72728 12.8752 4.77439C12.7635 4.8215 12.6437 4.84613 12.5225 4.84687C12.4024 4.84681 12.2834 4.82292 12.1726 4.77657C12.0618 4.73022 11.9612 4.66234 11.8768 4.57686C11.7489 4.44707 11.6619 4.2826 11.6265 4.10382C11.5912 3.92505 11.6092 3.73984 11.6781 3.57116C11.7471 3.40249 11.864 3.25776 12.0145 3.15493C12.1649 3.05209 12.3422 2.99568 12.5244 2.99268C12.7377 2.99263 12.9442 3.06748 13.1079 3.20415L13.1268 3.22303C13.1572 3.24782 13.185 3.27566 13.2098 3.30611L13.2306 3.32877C13.3658 3.49528 13.4391 3.70343 13.4383 3.91789Z" fill="white"/>
</g>
</svg>
