<svg width="32" height="32" viewBox="0 0 32 32" fill="none" xmlns="http://www.w3.org/2000/svg">
<path d="M31.3332 16.0001C31.3332 24.4685 24.4682 31.3334 15.9998 31.3334C7.53148 31.3334 0.666504 24.4685 0.666504 16.0001C0.666504 7.53172 7.53148 0.666748 15.9998 0.666748C24.4682 0.666748 31.3332 7.53172 31.3332 16.0001Z" fill="white" stroke="#EFF2F5"/>
<path d="M23.8696 24.8542L22.394 26.3298L23.3778 27.3137L24.8535 25.838L23.8696 24.8542Z" fill="black"/>
<path d="M26.3301 22.3943L24.8545 23.8699L25.8382 24.8538L27.314 23.378L26.3301 22.3943Z" fill="black"/>
<path d="M20.9185 21.9028L19.4429 23.3784L20.4266 24.3623L21.9023 22.8866L20.9185 21.9028Z" fill="black"/>
<path d="M22.395 23.3784L20.9194 24.8542L21.9032 25.8379L23.3789 24.3623L22.395 23.3784Z" fill="black"/>
<path d="M9.60547 26.3302L5.67032 22.395L4.68652 23.3789L8.62167 27.314L9.60547 26.3302Z" fill="black"/>
<path d="M11.081 24.8539L9.60534 23.3782L8.62158 24.3619L10.0973 25.8376L11.081 24.8539Z" fill="black"/>
<path d="M8.62157 22.3945L7.14591 20.9189L6.16211 21.9027L7.63778 23.3784L8.62157 22.3945Z" fill="black"/>
<path d="M23.3786 19.4434L21.9028 20.9191L22.8866 21.9028L24.3623 20.4272L23.3786 19.4434Z" fill="black"/>
<path d="M24.8542 20.9189L23.3784 22.3947L24.3623 23.3784L25.8379 21.9028L24.8542 20.9189Z" fill="black"/>
<path d="M20.8964 18.8526C20.1853 20.0843 16.2104 21.895 13.5 20.3302C10.7897 18.7654 10.3703 14.4176 11.0815 13.1859C12.6524 10.4649 16.123 9.52774 18.8333 11.0926C21.5437 12.6574 22.4674 16.1316 20.8964 18.8526Z" fill="#D80027"/>
<path d="M20.9076 18.8331C19.3428 21.5435 15.8772 22.4721 13.1668 20.9073C10.4565 19.3425 9.52783 15.8769 11.0927 13.1665" fill="#0052B4"/>
<path d="M12.5566 23.3783L8.62148 19.4431L7.6377 20.427L11.5728 24.362L12.5566 23.3783Z" fill="black"/>
<path d="M20.9199 7.14542L24.855 11.0806L25.8389 10.0968L21.9037 6.16162L20.9199 7.14542Z" fill="black"/>
<path d="M21.9028 11.0812L23.3784 12.5568L24.3622 11.5731L22.8866 10.0974L21.9028 11.0812Z" fill="black"/>
<path d="M19.4438 8.62169L20.9196 10.0974L21.9033 9.11361L20.4277 7.63794L19.4438 8.62169Z" fill="black"/>
<path d="M24.8545 8.1298L26.3302 9.60546L27.314 8.62168L25.8384 7.146L24.8545 8.1298Z" fill="black"/>
<path d="M22.394 5.67008L23.8696 7.14576L24.8535 6.16196L23.3778 4.68628L22.394 5.67008Z" fill="black"/>
<path d="M5.66984 9.60498L9.60498 5.66983L8.62118 4.68604L4.68604 8.62118L5.66984 9.60498Z" fill="black"/>
<path d="M7.14541 11.0806L11.0806 7.14542L10.0968 6.16162L6.16162 10.0968L7.14541 11.0806Z" fill="black"/>
<path d="M8.62194 12.5568L12.5571 8.6217L11.5733 7.63794L7.63818 11.5731L8.62194 12.5568Z" fill="black"/>
<path d="M12.0462 17.1813C13.4013 17.9637 15.1342 17.4994 15.9166 16.1443C16.699 14.7891 16.2347 13.0562 14.8795 12.2738C13.5244 11.4914 11.7915 11.9558 11.0091 13.3109C10.2267 14.6661 10.691 16.3989 12.0462 17.1813Z" fill="#D80027"/>
<path d="M16.9539 20.0146C18.3091 20.797 20.0419 20.3327 20.8243 18.9775C21.6067 17.6223 21.1424 15.8895 19.7872 15.1071C18.4321 14.3247 16.6992 14.789 15.9168 16.1442C15.1344 17.4993 15.5987 19.2322 16.9539 20.0146Z" fill="#0052B4"/>
</svg>
