<svg width="25" height="25" viewBox="0 0 25 25" fill="none" xmlns="http://www.w3.org/2000/svg">
<circle cx="12.5" cy="12.5" r="12.5" fill="#170C2D"/>
<circle cx="12.5" cy="12.5" r="12.5" fill="#170C2D"/>
<g opacity="0.5">
<path d="M18.9478 17.5499L16.1353 10.7374C16.0834 10.6116 15.9952 10.504 15.8821 10.4283C15.769 10.3527 15.6359 10.3123 15.4998 10.3123C15.3637 10.3123 15.2307 10.3527 15.1175 10.4283C15.0044 10.504 14.9163 10.6116 14.8644 10.7374L12.0519 17.5499C12.0169 17.6334 11.9988 17.7231 11.9985 17.8136C11.9983 17.9042 12.016 17.9939 12.0505 18.0776C12.0851 18.1614 12.1358 18.2374 12.1999 18.3015C12.2639 18.3655 12.34 18.4163 12.4237 18.4508C12.5074 18.4854 12.5971 18.5031 12.6877 18.5029C12.7783 18.5026 12.8679 18.4845 12.9514 18.4496C13.035 18.4146 13.1108 18.3635 13.1745 18.2991C13.2383 18.2348 13.2886 18.1585 13.3228 18.0746L13.8956 16.6874H17.104L17.6769 18.0746C17.7288 18.2004 17.8169 18.3081 17.9301 18.3838C18.0432 18.4595 18.1763 18.4999 18.3125 18.4999C18.4255 18.4998 18.5367 18.4719 18.6363 18.4186C18.7359 18.3654 18.8209 18.2884 18.8836 18.1944C18.9464 18.1005 18.9851 17.9926 18.9962 17.8802C19.0074 17.7677 18.9906 17.6543 18.9475 17.5499H18.9478ZM14.4634 15.3124L15.5 12.8015L16.5365 15.3124H14.4634Z" fill="white"/>
<path d="M12.37 14.7163C12.4768 14.5687 12.5207 14.3848 12.4921 14.205C12.4634 14.0251 12.3645 13.8639 12.2172 13.7569C12.2109 13.7522 11.7484 13.4091 11.0769 12.6716C12.3159 10.9941 13.0178 9.08562 13.3041 8.1875H14.3125C14.4948 8.1875 14.6697 8.11507 14.7986 7.98614C14.9276 7.8572 15 7.68234 15 7.5C15 7.31766 14.9276 7.1428 14.7986 7.01386C14.6697 6.88493 14.4948 6.8125 14.3125 6.8125H10.6875V6.1875C10.6875 6.00516 10.6151 5.8303 10.4861 5.70136C10.3572 5.57243 10.1823 5.5 10 5.5C9.81766 5.5 9.6428 5.57243 9.51386 5.70136C9.38493 5.8303 9.3125 6.00516 9.3125 6.1875V6.8125H5.6875C5.50516 6.8125 5.3303 6.88493 5.20136 7.01386C5.07243 7.1428 5 7.31766 5 7.5C5 7.68234 5.07243 7.8572 5.20136 7.98614C5.3303 8.11507 5.50516 8.1875 5.6875 8.1875H11.8516C11.5541 9.02969 11.0063 10.3594 10.1706 11.5738C9.18906 10.2713 8.82437 9.42844 8.82156 9.42156C8.7497 9.2555 8.61527 9.12445 8.44743 9.05686C8.27958 8.98926 8.09185 8.99057 7.92496 9.06048C7.75806 9.1304 7.62546 9.26329 7.55591 9.43034C7.48636 9.59738 7.48547 9.78511 7.55344 9.95281C7.57156 9.99594 8.00813 11.0225 9.20531 12.5756C9.23406 12.6128 9.2625 12.6491 9.29094 12.6853C8.06469 14.0712 6.86156 14.9309 6.35812 15.2084C6.19804 15.2958 6.0792 15.4431 6.02775 15.618C5.97629 15.793 5.99644 15.9812 6.08375 16.1412C6.17106 16.3013 6.3184 16.4202 6.49333 16.4716C6.66827 16.5231 6.85648 16.5029 7.01656 16.4156C7.08406 16.3787 8.53531 15.5753 10.1925 13.7409C10.8963 14.4934 11.38 14.8484 11.4091 14.8691C11.4822 14.9222 11.5651 14.9604 11.653 14.9814C11.7408 15.0025 11.832 15.006 11.9213 14.9917C12.0105 14.9775 12.0961 14.9458 12.1731 14.8985C12.2501 14.8512 12.317 14.7891 12.37 14.7159V14.7163Z" fill="white"/>
</g>
</svg>
