<svg width="14" height="14" viewBox="0 0 14 14" fill="none" xmlns="http://www.w3.org/2000/svg">
<path d="M6.91865 9.65223C6.87705 10.2159 6.63558 10.7462 6.23765 11.1476L5.63182 11.7534C5.18192 12.197 4.57492 12.4446 3.94319 12.4423C3.31146 12.44 2.70625 12.1881 2.25954 11.7414C1.81284 11.2946 1.56088 10.6894 1.55862 10.0576C1.55635 9.42589 1.80396 8.81889 2.24746 8.36896L2.85332 7.76309C3.25476 7.36529 3.78498 7.12376 4.3486 7.08209L5.44884 5.98183C4.84255 5.82103 4.20472 5.82183 3.59884 5.98416C2.99295 6.14643 2.44014 6.46463 1.99542 6.90696L1.38955 7.51289C0.713624 8.18889 0.333924 9.10576 0.333984 10.0617C0.334044 11.0177 0.713851 11.9345 1.38985 12.6104C2.06586 13.2864 2.98268 13.6661 3.93864 13.666C4.8946 13.666 5.81138 13.2862 6.48732 12.6102L7.09318 12.0043C7.53532 11.5594 7.85332 11.0066 8.01565 10.4007C8.17792 9.79483 8.17885 9.15709 8.01832 8.55076L6.91865 9.65223Z" fill="black"/>
<path d="M9.65358 6.91787C10.2172 6.87627 10.7475 6.6348 11.1488 6.23687L11.7547 5.631C12.1982 5.18109 12.4458 4.57407 12.4436 3.94232C12.4413 3.31057 12.1894 2.70534 11.7426 2.25862C11.296 1.81191 10.6907 1.55994 10.059 1.55767C9.42724 1.55541 8.82024 1.80303 8.37038 2.24653L7.76451 2.85242C7.36671 3.25387 7.12524 3.78411 7.08351 4.34774L5.98324 5.44802C5.82251 4.84171 5.82331 4.20386 5.98558 3.59795C6.14791 2.99205 6.46604 2.43922 6.90844 1.99449L7.51431 1.38861C8.19031 0.712661 9.10711 0.332954 10.063 0.333008C11.019 0.333068 11.9358 0.712881 12.6117 1.38891C13.2876 2.06493 13.6674 2.98178 13.6673 3.93777C13.6672 4.89375 13.2874 5.81053 12.6114 6.48654L12.0056 7.0924C11.5607 7.53453 11.0079 7.8526 10.402 8.01487C9.79618 8.1772 9.15844 8.17813 8.55211 8.0176L9.65358 6.91787Z" fill="black"/>
<path d="M4.57644 10.0294C4.45663 10.0294 4.33951 9.99382 4.23991 9.92728C4.14029 9.86068 4.06266 9.76608 4.01681 9.65535C3.97097 9.54468 3.95897 9.42288 3.98234 9.30535C4.00571 9.18782 4.06339 9.07988 4.14809 8.99515L8.99501 4.1481C9.10928 4.03774 9.26235 3.97667 9.42121 3.97805C9.58001 3.97943 9.73201 4.04315 9.84435 4.15548C9.95668 4.26782 10.0203 4.41978 10.0217 4.57864C10.0231 4.7375 9.96208 4.89055 9.85168 5.00482L5.00479 9.85188C4.89119 9.96555 4.73711 10.0294 4.57644 10.0294Z" fill="black"/>
</svg>
