<svg width="11" height="11" viewBox="0 0 11 11" fill="none" xmlns="http://www.w3.org/2000/svg">
<path fill-rule="evenodd" clip-rule="evenodd" d="M5.5 0C5.70838 0 5.90823 0.0827803 6.05558 0.23013C6.20293 0.37748 6.28571 0.57733 6.28571 0.785714V4.71429H10.2143C10.4227 4.71429 10.6225 4.79707 10.7699 4.94442C10.9172 5.09177 11 5.29162 11 5.5C11 5.70838 10.9172 5.90823 10.7699 6.05558C10.6225 6.20293 10.4227 6.28571 10.2143 6.28571H6.28571V10.2143C6.28571 10.4227 6.20293 10.6225 6.05558 10.7699C5.90823 10.9172 5.70838 11 5.5 11C5.29162 11 5.09177 10.9172 4.94442 10.7699C4.79707 10.6225 4.71429 10.4227 4.71429 10.2143V6.28571H0.785714C0.57733 6.28571 0.37748 6.20293 0.23013 6.05558C0.0827803 5.90823 0 5.70838 0 5.5C0 5.29162 0.0827803 5.09177 0.23013 4.94442C0.37748 4.79707 0.57733 4.71429 0.785714 4.71429H4.71429V0.785714C4.71429 0.57733 4.79707 0.37748 4.94442 0.23013C5.09177 0.0827803 5.29162 0 5.5 0Z" fill="#678892"/>
</svg>
