<svg width="54" height="51" viewBox="0 0 54 51" fill="none" xmlns="http://www.w3.org/2000/svg">
<path d="M27.5 51C24.02 51 20.574 50.3404 17.3589 49.0589C14.1438 47.7774 11.2224 45.8991 8.76167 43.5312C6.30092 41.1633 4.34894 38.3522 3.01719 35.2584C1.68544 32.1646 1 28.8487 1 25.5C1 22.1513 1.68545 18.8354 3.0172 15.7416C4.34895 12.6478 6.30092 9.83667 8.76167 7.46877C11.2224 5.10088 14.1438 3.22256 17.3589 1.94107C20.574 0.659575 24.02 -1.60322e-06 27.5 -1.15835e-06L27.5 25.5L27.5 51Z" fill="white" fill-opacity="0.19"/>
<path d="M16 21L21 25.5L16 30" stroke="white" stroke-width="2"/>
</svg>
