<svg width="13" height="13" viewBox="0 0 13 13" fill="none" xmlns="http://www.w3.org/2000/svg">
<path opacity="0.6" d="M5.93986 1.42547C6.11658 0.858178 6.88412 0.858178 7.06025 1.42547L7.95503 4.30441C7.99354 4.42791 8.0684 4.53551 8.1689 4.61184C8.26941 4.68817 8.39042 4.72932 8.51464 4.72942H11.4099C11.9807 4.72942 12.2175 5.4932 11.7562 5.84429L9.41413 7.62315C9.31353 7.69963 9.23865 7.80744 9.20024 7.93115C9.16183 8.05485 9.16185 8.18809 9.2003 8.31178L10.0945 11.1907C10.2712 11.7586 9.64976 12.2305 9.18852 11.8794L6.84642 10.1005C6.74576 10.024 6.62451 9.98277 6.50005 9.98277C6.3756 9.98277 6.25435 10.024 6.15369 10.1005L3.81159 11.8794C3.35035 12.2305 2.7289 11.758 2.90561 11.1907L3.79981 8.31178C3.83826 8.18809 3.83828 8.05485 3.79987 7.93115C3.76146 7.80744 3.68658 7.69963 3.58598 7.62315L1.24388 5.84429C0.782053 5.4932 1.02003 4.72942 1.59024 4.72942H4.48488C4.6092 4.72945 4.73034 4.68836 4.83097 4.61202C4.93159 4.53568 5.00654 4.42801 5.04508 4.30441L5.93986 1.42547V1.42547Z" stroke="#00EEA7" stroke-width="1.3" stroke-linecap="round" stroke-linejoin="round"/>
</svg>
