<svg width="14" height="13" viewBox="0 0 14 13" fill="none" xmlns="http://www.w3.org/2000/svg">
<g opacity="0.7">
<path d="M14 0.812771L11.7855 11.9765C11.7855 11.9765 11.4756 12.7505 10.6244 12.3793L5.51495 8.46183L3.65646 7.56387L0.528786 6.51098C0.528786 6.51098 0.0488212 6.34026 0.00264736 5.96905C-0.044134 5.59723 0.544582 5.39613 0.544582 5.39613L12.9781 0.518717C12.9781 0.518717 14 0.0697371 14 0.812771Z" fill="#FEFEFE"/>
<path d="M7.5106 10.2328L5.33496 12.2165C5.33496 12.2165 5.16545 12.3453 4.97894 12.2645C4.70493 12.225 3.90114 9.35979 3.40234 7.65014L3.81973 7.38464L7.5106 10.2328Z" fill="#BFBFBF"/>
<path d="M4.97894 12.2643C4.68245 12.2364 3.55484 8.14939 3.40234 7.64999L11.4846 2.51679C11.905 2.26162 12.1298 2.46272 11.7677 2.80052C11.518 3.03382 5.4188 8.51635 5.4188 8.51635L4.97894 12.2643Z" fill="#969696"/>
</g>
</svg>
