<svg width="16" height="16" viewBox="0 0 16 16" fill="none" xmlns="http://www.w3.org/2000/svg">
<g opacity="0.7" clip-path="url(#clip0_1_593)">
<path d="M15.6374 2.962C15.386 3.07347 15.1276 3.16756 14.8635 3.24397C15.1762 2.89041 15.4145 2.47441 15.56 2.01919C15.5926 1.91716 15.5588 1.80548 15.475 1.73873C15.3912 1.67194 15.2748 1.66394 15.1826 1.7186C14.6218 2.05119 14.0168 2.29022 13.3824 2.42997C12.7434 1.80557 11.8755 1.4502 10.9783 1.4502C9.08432 1.4502 7.54348 2.991 7.54348 4.88487C7.54348 5.03402 7.55292 5.18237 7.57161 5.32865C5.22143 5.12231 3.0365 3.96715 1.53613 2.12669C1.48266 2.0611 1.40029 2.02572 1.31595 2.03251C1.23157 2.0391 1.15573 2.08669 1.1131 2.15985C0.808792 2.682 0.647917 3.27922 0.647917 3.88687C0.647917 4.71449 0.943385 5.49971 1.46535 6.1133C1.30663 6.05833 1.15263 5.98965 1.00563 5.90805C0.926729 5.86412 0.830416 5.8648 0.75201 5.90974C0.673573 5.95471 0.624386 6.03736 0.622292 6.12774C0.621917 6.14296 0.621917 6.15818 0.621917 6.17361C0.621917 7.40895 1.28679 8.52117 2.30332 9.12735C2.21597 9.11863 2.12872 9.10598 2.04201 9.08942C1.9526 9.07232 1.86069 9.10366 1.80041 9.17185C1.74004 9.23998 1.72004 9.33495 1.74788 9.42166C2.12413 10.5964 3.09284 11.4604 4.26393 11.7238C3.29263 12.3322 2.18188 12.6509 1.01585 12.6509C0.772542 12.6509 0.527855 12.6366 0.288387 12.6082C0.169419 12.5941 0.0556695 12.6643 0.0151384 12.7775C-0.0253927 12.8907 0.0175759 13.0169 0.118763 13.0817C1.61673 14.0422 3.34878 14.5499 5.12762 14.5499C8.62457 14.5499 10.8122 12.9008 12.0315 11.5175C13.5521 9.79251 14.4241 7.50933 14.4241 5.2534C14.4241 5.15915 14.4226 5.06399 14.4197 4.96912C15.0196 4.51715 15.5361 3.97015 15.9564 3.34147C16.0202 3.246 16.0133 3.11978 15.9394 3.03191C15.8656 2.94388 15.7425 2.91544 15.6374 2.962Z" fill="white"/>
</g>
<defs>
<clipPath id="clip0_1_593">
<rect width="16" height="16" fill="white"/>
</clipPath>
</defs>
</svg>
