<svg width="14" height="14" viewBox="0 0 14 14" fill="none" xmlns="http://www.w3.org/2000/svg">
<path fill-rule="evenodd" clip-rule="evenodd" d="M7.0007 0.333252C7.1775 0.333252 7.3471 0.403492 7.4721 0.528512L11.0725 4.12889C11.3328 4.38924 11.3328 4.81135 11.0725 5.0717C10.8121 5.33205 10.39 5.33205 10.1297 5.0717L7.6675 2.60951V9.66659C7.6675 10.0348 7.36903 10.3333 7.00083 10.3333C6.63263 10.3333 6.33416 10.0348 6.33416 9.66659V2.60929L3.87174 5.0717C3.61139 5.33205 3.18928 5.33205 2.92893 5.0717C2.66858 4.81135 2.66858 4.38924 2.92893 4.12889L6.5293 0.528512C6.6543 0.403492 6.8239 0.333252 7.0007 0.333252ZM1.00016 8.99992C1.36835 8.99992 1.66683 9.29839 1.66683 9.66659V11.6666C1.66683 12.0348 1.96531 12.3333 2.3335 12.3333H11.668C12.0362 12.3333 12.3347 12.0348 12.3347 11.6666V9.66659C12.3347 9.29839 12.6332 8.99992 13.0014 8.99992C13.3696 8.99992 13.668 9.29839 13.668 9.66659V11.6666C13.668 12.7712 12.7726 13.6666 11.668 13.6666H2.3335C1.22893 13.6666 0.333496 12.7712 0.333496 11.6666V9.66659C0.333496 9.29839 0.631976 8.99992 1.00016 8.99992Z" fill="black"/>
</svg>
