<svg width="33" height="33" viewBox="0 0 33 33" fill="none" xmlns="http://www.w3.org/2000/svg">
<path fill-rule="evenodd" clip-rule="evenodd" d="M33 16.5C33 20.8761 31.2616 25.0729 28.1673 28.1673C25.0729 31.2616 20.8761 33 16.5 33C12.1239 33 7.92709 31.2616 4.83274 28.1673C1.73839 25.0729 0 20.8761 0 16.5C0 12.1239 1.73839 7.92709 4.83274 4.83274C7.92709 1.73839 12.1239 0 16.5 0C20.8761 0 25.0729 1.73839 28.1673 4.83274C31.2616 7.92709 33 12.1239 33 16.5ZM20.625 10.3125C20.625 11.4065 20.1904 12.4557 19.4168 13.2293C18.6432 14.0029 17.594 14.4375 16.5 14.4375C15.406 14.4375 14.3568 14.0029 13.5832 13.2293C12.8096 12.4557 12.375 11.4065 12.375 10.3125C12.375 9.21848 12.8096 8.16927 13.5832 7.39568C14.3568 6.6221 15.406 6.1875 16.5 6.1875C17.594 6.1875 18.6432 6.6221 19.4168 7.39568C20.1904 8.16927 20.625 9.21848 20.625 10.3125ZM16.5 18.5625C14.5254 18.5621 12.5921 19.1286 10.93 20.1948C9.26796 21.2609 7.9469 22.7818 7.12388 24.5768C8.2844 25.9269 9.72318 27.01 11.3416 27.7519C12.96 28.4938 14.7197 28.8769 16.5 28.875C18.2803 28.8769 20.04 28.4938 21.6584 27.7519C23.2768 27.01 24.7156 25.9269 25.8761 24.5768C25.0531 22.7818 23.732 21.2609 22.07 20.1948C20.4079 19.1286 18.4746 18.5621 16.5 18.5625Z" fill="url(#paint0_linear_1_28)"/>
<defs>
<linearGradient id="paint0_linear_1_28" x1="16.5" y1="0" x2="16" y2="44.5" gradientUnits="userSpaceOnUse">
<stop stop-color="#00EEA7"/>
<stop offset="1" stop-color="#00EEA7" stop-opacity="0"/>
</linearGradient>
</defs>
</svg>
