<svg width="16" height="12" viewBox="0 0 16 12" fill="none" xmlns="http://www.w3.org/2000/svg">
<path opacity="0.7" d="M12.974 0H3.026C2.62845 -9.11148e-08 2.2348 0.0821997 1.86754 0.241901C1.50028 0.401603 1.1666 0.635677 0.885588 0.930747C0.604572 1.22582 0.38172 1.5761 0.229767 1.96158C0.0778137 2.34706 -0.000262094 2.76018 6.61001e-07 3.17733V8.82267C-0.000262094 9.23982 0.0778137 9.65294 0.229767 10.0384C0.38172 10.4239 0.604572 10.7742 0.885588 11.0693C1.1666 11.3643 1.50028 11.5984 1.86754 11.7581C2.2348 11.9178 2.62845 12 3.026 12H12.974C13.3715 12 13.7652 11.9178 14.1325 11.7581C14.4997 11.5984 14.8334 11.3643 15.1144 11.0693C15.3954 10.7742 15.6183 10.4239 15.7702 10.0384C15.9222 9.65294 16.0003 9.23982 16 8.82267V3.17733C16.0003 2.76018 15.9222 2.34706 15.7702 1.96158C15.6183 1.5761 15.3954 1.22582 15.1144 0.930747C14.8334 0.635677 14.4997 0.401603 14.1325 0.241901C13.7652 0.0821997 13.3715 -9.11148e-08 12.974 0ZM5.892 8.57293V3.42707L10.108 6L5.892 8.57293Z" fill="white"/>
</svg>
