<svg width="455" height="455" viewBox="0 0 455 455" fill="none" xmlns="http://www.w3.org/2000/svg">
<g style="mix-blend-mode:hard-light">
<path d="M312.434 111.982C318.728 103.461 330.831 101.578 338.553 108.832C358.87 127.92 374.02 151.996 382.398 178.809C392.691 211.752 392.229 247.116 381.08 279.778C369.931 312.44 348.673 340.705 320.385 360.478C292.098 380.251 258.25 390.505 223.745 389.755C189.24 389.005 155.87 377.29 128.469 356.306C101.068 335.322 81.0582 306.16 71.3389 273.044C61.6196 239.928 62.6954 204.578 74.4104 172.114C83.9459 145.689 100.127 122.294 121.255 104.108C129.285 97.1965 141.295 99.6031 147.213 108.39C153.13 117.177 150.678 129 142.906 136.2C128.415 149.625 117.265 166.381 110.497 185.136C101.547 209.936 100.726 236.942 108.15 262.24C115.575 287.539 130.861 309.817 151.794 325.847C172.727 341.877 198.22 350.827 224.579 351.4C250.939 351.973 276.796 344.14 298.406 329.034C320.015 313.929 336.255 292.337 344.773 267.385C353.29 242.433 353.643 215.417 345.779 190.251C339.833 171.22 329.422 153.994 315.528 139.953C308.076 132.422 306.14 120.504 312.434 111.982Z" fill="url(#paint0_linear_1_603)"/>
<path d="M231.361 24.5335L188.758 117.659L216.574 113.308L213.531 191.063L267.764 77.6889L239.943 82.0409L231.361 24.5335Z" fill="url(#paint1_linear_1_603)"/>
</g>
<defs>
<linearGradient id="paint0_linear_1_603" x1="96.5524" y1="130.725" x2="408.943" y2="372.552" gradientUnits="userSpaceOnUse">
<stop stop-color="#00EEA7"/>
<stop offset="1" stop-color="#00EEA7" stop-opacity="0"/>
</linearGradient>
<linearGradient id="paint1_linear_1_603" x1="217.167" y1="26.7539" x2="239.087" y2="222.017" gradientUnits="userSpaceOnUse">
<stop stop-color="#00EEA7"/>
<stop offset="1" stop-color="#00EEA7" stop-opacity="0"/>
</linearGradient>
</defs>
</svg>
