<svg width="121" height="38" viewBox="0 0 121 38" fill="none" xmlns="http://www.w3.org/2000/svg">
<path d="M35.0644 33.5922V34.9324H35.8626C36.1116 34.9324 36.3045 34.8714 36.4412 34.7493C36.5828 34.6224 36.6536 34.4613 36.6536 34.266C36.6536 34.0707 36.5901 33.9095 36.4632 33.7826C36.3411 33.6557 36.1531 33.5922 35.8992 33.5922H35.0644ZM35.0644 37.5689H33.9292V32.5522H36.0677C36.3362 32.5522 36.5755 32.5937 36.7854 32.6767C37.0002 32.7597 37.1809 32.8745 37.3273 33.0209C37.4787 33.1674 37.5934 33.3432 37.6716 33.5482C37.7546 33.7533 37.7961 33.9779 37.7961 34.222C37.7961 34.4173 37.7643 34.6028 37.7009 34.7786C37.6374 34.9544 37.5471 35.1131 37.4299 35.2546C37.3127 35.3962 37.1687 35.5159 36.9978 35.6135C36.8269 35.7111 36.6365 35.7819 36.4265 35.8259L38.0231 37.5689H36.5437L35.0644 35.8625V37.5689Z" fill="white"/>
<path d="M40.6027 33.7387L39.9509 35.7014H41.2545L40.6027 33.7387ZM41.5914 36.7047H39.6213L39.3357 37.5689H38.1713L39.9436 32.5522H41.3351L43.1001 37.5689H41.877L41.5914 36.7047Z" fill="white"/>
<path d="M43.9008 37.5689V33.5922H42.4068V32.5522H46.53V33.5922H45.0359V37.5689H43.9008Z" fill="white"/>
<path d="M46.9457 37.5689V32.5522H48.0809V37.5689H46.9457Z" fill="white"/>
<path d="M49.782 34.3905V37.5689H48.6908V32.5522H49.9285L51.9498 35.738V32.5522H53.041V37.5689H51.8033L49.782 34.3905Z" fill="white"/>
<path d="M58.7808 35.0496C58.7808 35.4255 58.7173 35.7746 58.5904 36.0969C58.4683 36.4142 58.295 36.6901 58.0704 36.9244C57.8507 37.1588 57.5846 37.3419 57.2721 37.4737C56.9597 37.6055 56.6154 37.6714 56.2395 37.6714C55.844 37.6714 55.4803 37.6031 55.1483 37.4664C54.8163 37.3297 54.5307 37.1441 54.2914 36.9098C54.0522 36.6705 53.8667 36.3922 53.7348 36.0749C53.603 35.7575 53.5371 35.4182 53.5371 35.0569C53.5371 34.7005 53.6006 34.3636 53.7275 34.0463C53.8593 33.7289 54.0424 33.453 54.2768 33.2187C54.516 32.9794 54.8016 32.7915 55.1336 32.6548C55.4656 32.5181 55.8343 32.4497 56.2395 32.4497C56.7131 32.4497 57.1257 32.54 57.4772 32.7207C57.8336 32.9013 58.1265 33.1552 58.356 33.4823L57.5211 34.1927C57.3502 33.9779 57.1598 33.8119 56.9499 33.6947C56.7399 33.5727 56.5031 33.5116 56.2395 33.5116C56.0198 33.5116 55.8147 33.5507 55.6243 33.6288C55.4388 33.702 55.2752 33.8095 55.1336 33.951C54.9969 34.0878 54.8895 34.2538 54.8114 34.449C54.7333 34.6395 54.6942 34.8518 54.6942 35.0862C54.6942 35.3059 54.7308 35.511 54.8041 35.7014C54.8822 35.8869 54.9872 36.048 55.119 36.1847C55.2557 36.3166 55.4168 36.4215 55.6023 36.4997C55.7879 36.5778 55.9905 36.6168 56.2102 36.6168C56.5471 36.6168 56.8229 36.5387 57.0378 36.3825C57.2575 36.2262 57.4162 36.0139 57.5138 35.7453H56.1809V34.7566H58.7808V35.0496Z" fill="white"/>
<path d="M39.5519 10.3426V17.1275H43.5932C44.8537 17.1275 45.8301 16.8185 46.5221 16.2006C47.2389 15.5579 47.5973 14.7423 47.5973 13.7536C47.5973 12.7649 47.276 11.9492 46.6334 11.3066C46.0154 10.664 45.0638 10.3426 43.7785 10.3426H39.5519ZM39.5519 30.4747H33.8052V5.07788H44.6313C45.9907 5.07788 47.2019 5.28798 48.2647 5.70817C49.3523 6.12836 50.2668 6.70921 51.0083 7.45073C51.7745 8.19224 52.3554 9.08206 52.7509 10.1202C53.1711 11.1583 53.3811 12.2953 53.3811 13.5311C53.3811 14.5198 53.2205 15.4591 52.8992 16.3489C52.5778 17.2387 52.1206 18.042 51.5274 18.7588C50.9342 19.4756 50.205 20.0812 49.3399 20.5755C48.4748 21.0699 47.5108 21.4283 46.448 21.6507L54.5305 30.4747H47.0412L39.5519 21.8361V30.4747Z" fill="white"/>
<path d="M56.6154 5.07788H75.1903V10.2685H62.3622V15.0512H74.2264V20.0935H62.3622V25.2841H75.2274V30.4747H56.6154V5.07788Z" fill="white"/>
<path d="M77.7964 5.07788H96.3713V10.2685H83.5431V15.0512H95.4073V20.0935H83.5431V25.2841H96.4084V30.4747H77.7964V5.07788Z" fill="white"/>
<path d="M104.502 14.3839V30.4747H98.9773V5.07788H105.243L115.476 21.2058V5.07788H121V30.4747H114.734L104.502 14.3839Z" fill="white"/>
<path fill-rule="evenodd" clip-rule="evenodd" d="M17.671 10.5708L19.8374 5.22586C15.9953 4.65871 11.9431 5.85377 8.98585 8.81102C4.0231 13.7738 4.0231 21.82 8.98585 26.7827C13.9486 31.7455 21.9948 31.7455 26.9576 26.7827C30.3089 23.4314 31.3971 18.6739 30.2221 14.4094L25.1406 16.169C25.7419 18.5986 25.0931 21.2742 23.1942 23.173C20.3099 26.0574 15.6335 26.0574 12.7492 23.173C9.86482 20.2887 9.86482 15.6123 12.7492 12.7279C14.1148 11.3623 15.8823 10.6432 17.671 10.5708Z" fill="#00EEA7"/>
<path d="M26.431 9.60665L16.5706 13.347L18.9235 15.0411L13.074 20.518L25.2517 16.1356L22.8984 14.4412L26.431 9.60665Z" fill="url(#paint0_linear_1_16)"/>
<defs>
<linearGradient id="paint0_linear_1_16" x1="25.2303" y1="8.74221" x2="12.7065" y2="24.6353" gradientUnits="userSpaceOnUse">
<stop stop-color="#00EEA7"/>
<stop offset="1" stop-color="#00EEA7" stop-opacity="0"/>
</linearGradient>
</defs>
</svg>
